<svg xmlns="http://www.w3.org/2000/svg" xmlns:xlink="http://www.w3.org/1999/xlink" width="1024" zoomAndPan="magnify" viewBox="0 0 768 720.749996" height="961" preserveAspectRatio="xMidYMid meet" version="1.0"><defs><clipPath id="629ba20457"><path d="M 599 0 L 767.867188 0 L 767.867188 163 L 599 163 Z M 599 0 " clip-rule="nonzero"/></clipPath><clipPath id="09e5191fe5"><path d="M 221 385 L 454 385 L 454 714.503906 L 221 714.503906 Z M 221 385 " clip-rule="nonzero"/></clipPath><clipPath id="16a6dd0cfc"><path d="M 0.132812 0 L 675 0 L 675 569 L 0.132812 569 Z M 0.132812 0 " clip-rule="nonzero"/></clipPath></defs><g clip-path="url(#629ba20457)"><path fill="#6691fe" d="M 767.628906 15.488281 L 767.628906 162.417969 L 717.585938 162.417969 L 717.585938 65.539062 C 717.585938 62.199219 716.527344 59.125 714.757812 56.601562 C 714.675781 56.5 714.59375 56.378906 714.511719 56.277344 C 711.761719 52.613281 707.425781 50.191406 702.519531 50.046875 C 702.378906 50.046875 702.234375 50.046875 702.09375 50.046875 L 599.058594 50.046875 L 599.058594 0 L 752.136719 0 C 752.277344 0 752.417969 0 752.5625 0 C 757.46875 0.140625 761.804688 2.542969 764.554688 6.226562 C 764.636719 6.328125 764.714844 6.453125 764.796875 6.554688 C 766.589844 9.078125 767.628906 12.171875 767.628906 15.488281 Z M 767.628906 15.488281 " fill-opacity="1" fill-rule="nonzero"/></g><g clip-path="url(#09e5191fe5)"><path fill="#6691fe" d="M 453.027344 387.609375 L 453.027344 637.566406 L 426.539062 658.488281 C 425.5625 659.570312 424.402344 660.605469 423.058594 661.625 C 418.925781 664.71875 414.8125 667.851562 410.742188 671.007812 C 397.546875 681.203125 384.539062 691.605469 371.328125 701.78125 C 349.582031 718.59375 327.679688 718.796875 305.851562 702.105469 C 291.113281 690.832031 276.699219 679.109375 262.019531 667.710938 C 258.519531 664.984375 254.996094 662.296875 251.457031 659.628906 C 250.640625 659.019531 249.929688 658.386719 249.277344 657.714844 L 221.75 636.140625 L 221.75 385.835938 L 337.390625 560.40625 Z M 453.027344 387.609375 " fill-opacity="1" fill-rule="nonzero"/></g><g clip-path="url(#16a6dd0cfc)"><path fill="#6691fe" d="M 674.285156 141.109375 L 674.285156 110.964844 C 674.285156 107.628906 673.226562 104.554688 671.433594 102.03125 C 671.351562 101.929688 671.269531 101.808594 671.1875 101.707031 C 668.441406 98.042969 664.105469 95.621094 659.199219 95.476562 C 659.054688 95.476562 658.914062 95.476562 658.769531 95.476562 L 626.808594 95.476562 C 564.898438 95.355469 490.363281 95.882812 428.433594 95.171875 L 412.492188 95.171875 C 404.675781 95.457031 397.691406 99.019531 392.90625 104.535156 L 392.457031 105.0625 L 384.742188 114.183594 L 349.890625 155.355469 C 349.828125 155.4375 349.746094 155.519531 349.683594 155.601562 L 349.441406 155.886719 L 349.054688 156.355469 C 349.136719 156.253906 349.195312 156.171875 349.277344 156.089844 C 346.449219 159.527344 342.171875 161.707031 337.367188 161.707031 C 335.191406 161.707031 333.132812 161.257812 331.261719 160.445312 C 328.632812 159.324219 326.375 157.472656 324.746094 155.152344 L 324.441406 154.683594 L 232.359375 18.988281 L 227.125 11.5 C 226.984375 11.316406 226.839844 11.113281 226.699219 10.929688 C 221.875 4.476562 214.261719 0.246094 205.648438 0 C 205.402344 0 205.140625 0 204.875 0 L 15.785156 0 C 7.273438 0 0.371094 6.898438 0.371094 15.40625 L 0.371094 297.421875 C 0.433594 299.804688 0.472656 302.183594 0.472656 304.527344 C 0.433594 328.542969 0.371094 352.578125 0.371094 376.597656 L 0.371094 379.996094 C 0.371094 396.09375 0.414062 412.234375 0.535156 428.335938 C 0.699219 450.457031 5.6875 470.464844 24.964844 484.898438 C 45.242188 500.121094 65.355469 515.527344 85.429688 531.015625 C 101.269531 543.207031 117.089844 555.441406 132.96875 567.570312 C 132.988281 567.570312 132.988281 567.570312 132.988281 567.570312 L 132.988281 259.484375 C 132.988281 250.9375 139.929688 243.996094 148.480469 243.996094 L 215.421875 243.996094 C 215.664062 243.996094 215.910156 243.996094 216.132812 243.996094 C 224.234375 244.21875 231.402344 248.207031 235.921875 254.273438 C 236.042969 254.457031 236.1875 254.640625 236.308594 254.824219 C 236.410156 254.984375 236.53125 255.128906 236.632812 255.292969 L 237.550781 256.777344 L 238.851562 258.851562 L 337.347656 416.792969 L 337.347656 416.816406 L 435.78125 258.976562 L 435.84375 258.875 L 437.144531 256.796875 L 438.0625 255.3125 C 438.164062 255.148438 438.265625 255.007812 438.386719 254.84375 C 438.53125 254.660156 438.652344 254.476562 438.773438 254.292969 C 443.316406 248.230469 450.460938 244.261719 458.5625 244.015625 C 458.808594 244.015625 459.050781 244.015625 459.277344 244.015625 L 526.214844 244.015625 C 534.765625 244.015625 541.707031 250.957031 541.707031 259.503906 L 541.707031 567.613281 C 541.707031 567.613281 541.707031 567.613281 541.726562 567.613281 L 541.726562 568.933594 C 546.574219 565.171875 551.398438 561.40625 556.246094 557.617188 C 586.984375 533.664062 617.667969 509.667969 648.734375 486.160156 C 666.058594 473.050781 674.285156 456.238281 674.304688 435.195312 C 674.445312 337.132812 674.425781 239.128906 674.285156 141.109375 Z M 105.28125 89.023438 L 113.035156 89.023438 Z M 105.28125 89.023438 " fill-opacity="1" fill-rule="nonzero"/></g><path fill="#ffffff" d="M 128.183594 81.394531 L 92.902344 81.394531 L 92.902344 46.101562 L 71.992188 46.101562 L 71.992188 81.394531 L 36.691406 81.394531 L 36.691406 102.296875 L 71.992188 102.296875 L 71.992188 137.566406 L 92.902344 137.566406 L 92.902344 102.296875 L 128.183594 102.296875 Z M 128.183594 81.394531 " fill-opacity="1" fill-rule="nonzero"/></svg>